FILE "Animals in Motion - Eadweard Muybridge (1991)(On-line)[Track 01 of 03].iso" BINARY
  TRACK 01 MODE1/2048
    INDEX 01 00:00:00
FILE "Animals in Motion - Eadweard Muybridge (1991)(On-line)[Track 02 of 03].wav" WAVE
  TRACK 02 AUDIO
    PREGAP 00:02:00
    INDEX 01 00:00:00
FILE "Animals in Motion - Eadweard Muybridge (1991)(On-line)[Track 03 of 03].wav" WAVE
  TRACK 03 AUDIO
    INDEX 01 00:00:00
